<?xml version='1.0' encoding='UTF-8' standalone='no'?>
<!-- Created with Fritzing (http://www.fritzing.org/) -->
<svg width="2.07058in" x="0in" version="1.2" y="0in" xmlns="http://www.w3.org/2000/svg" height="2.1725in" viewBox="0 0 149.082 156.42" baseProfile="tiny" xmlns:svg="http://www.w3.org/2000/svg">
 <g transform="matrix(-1, 0, 0, 1, 149.082, 0)">
  <g  id="silkscreen" stroke-width="0">
   <line  stroke="black" y1="0.287999" x1="0.288" y2="0.287999" stroke-width="0.576" x2="148.506"/>
   <line  stroke="black" y1="0.287999" x1="148.506" y2="155.844" stroke-width="0.576" x2="148.506"/>
   <line  stroke="black" y1="155.844" x1="148.506" y2="155.844" stroke-width="0.576" x2="0.288"/>
   <line  stroke="black" y1="155.844" x1="0.288" y2="0.287999" stroke-width="0.576" x2="0.288"/>
  </g>
  <g transform="translate(5.276,4.14209)">
   <g  id="copper0" stroke-width="0">
    <circle fill="none" cx="1.98"  cy="2.484" stroke="black" id="connector30pin" r="1.98" stroke-width="1.5"/>
    <circle fill="none" cx="9.18"  cy="2.484" stroke="black" id="connector31pin" r="1.98" stroke-width="1.5"/>
    <circle fill="none" cx="16.884"  cy="2.484" stroke="black" id="connector0pin" r="1.98" stroke-width="1.5"/>
    <circle fill="none" cx="24.084"  cy="2.484" stroke="black" id="connector1pin" r="1.98" stroke-width="1.5"/>
    <circle fill="none" cx="31.284"  cy="2.484" stroke="black" id="connector2pin" r="1.98" stroke-width="1.5"/>
    <circle fill="none" cx="38.485"  cy="2.484" stroke="black" id="connector3pin" r="1.98" stroke-width="1.5"/>
    <circle fill="none" cx="45.685"  cy="2.484" stroke="black" id="connector4pin" r="1.98" stroke-width="1.5"/>
    <circle fill="none" cx="52.884"  cy="2.484" stroke="black" id="connector5pin" r="1.98" stroke-width="1.5"/>
    <circle fill="none" cx="60.084"  cy="2.484" stroke="black" id="connector6pin" r="1.98" stroke-width="1.5"/>
    <circle fill="none" cx="67.284"  cy="2.484" stroke="black" id="connector7pin" r="1.98" stroke-width="1.5"/>
    <circle fill="none" cx="79.525"  cy="2.484" stroke="black" id="connector8pin" r="1.98" stroke-width="1.5"/>
    <circle fill="none" cx="86.725"  cy="2.484" stroke="black" id="connector9pin" r="1.98" stroke-width="1.5"/>
    <circle fill="none" cx="93.924"  cy="2.484" stroke="black" id="connector10pin" r="1.98" stroke-width="1.5"/>
    <circle fill="none" cx="101.124"  cy="2.484" stroke="black" id="connector11pin" r="1.98" stroke-width="1.5"/>
    <circle fill="none" cx="108.324"  cy="2.484" stroke="black" id="connector12pin" r="1.98" stroke-width="1.5"/>
    <circle fill="none" cx="115.525"  cy="2.484" stroke="black" id="connector13pin" r="1.98" stroke-width="1.5"/>
    <circle fill="none" cx="122.725"  cy="2.484" stroke="black" id="connector14pin" r="1.98" stroke-width="1.5"/>
    <circle fill="none" cx="129.924"  cy="2.484" stroke="black" id="connector15pin" r="1.98" stroke-width="1.5"/>
    <circle fill="none" cx="29.124"  cy="139.284" stroke="black" id="connector28pin" r="1.98" stroke-width="1.5"/>
    <circle fill="none" cx="36.324"  cy="139.284" stroke="black" id="connector29pin" r="1.98" stroke-width="1.5"/>
    <circle fill="none" cx="43.525"  cy="139.284" stroke="black" id="connector16pin" r="1.98" stroke-width="1.5"/>
    <circle fill="none" cx="50.725"  cy="139.284" stroke="black" id="connector17pin" r="1.98" stroke-width="1.5"/>
    <circle fill="none" cx="57.924"  cy="139.284" stroke="black" id="connector18pin" r="1.98" stroke-width="1.5"/>
    <circle fill="none" cx="65.124"  cy="139.284" stroke="black" id="connector19pin" r="1.98" stroke-width="1.5"/>
    <circle fill="none" cx="72.324"  cy="139.284" stroke="black" id="connector20pin" r="1.98" stroke-width="1.5"/>
    <circle fill="none" cx="79.525"  cy="139.284" stroke="black" id="connector21pin" r="1.98" stroke-width="1.5"/>
    <circle fill="none" cx="93.924"  cy="139.284" stroke="black" id="connector22pin" r="1.98" stroke-width="1.5"/>
    <circle fill="none" cx="101.124"  cy="139.284" stroke="black" id="connector23pin" r="1.98" stroke-width="1.5"/>
    <circle fill="none" cx="108.324"  cy="139.284" stroke="black" id="connector24pin" r="1.98" stroke-width="1.5"/>
    <circle fill="none" cx="115.525"  cy="139.284" stroke="black" id="connector25pin" r="1.98" stroke-width="1.5"/>
    <circle fill="none" cx="122.725"  cy="139.284" stroke="black" id="connector26pin" r="1.98" stroke-width="1.5"/>
    <circle fill="none" cx="129.924"  cy="139.284" stroke="black" id="connector27pin" r="1.98" stroke-width="1.5"/>
   </g>
  </g>
  <g transform="translate(95.6,24.6261)">
   <g  id="copper0" stroke-width="0">
    <circle fill="none" cx="32.4"  cy="32.4" connectorname="RX2_LV" stroke="black" r="1.872" id="connector1pad" stroke-width="0.864"/>
    <circle fill="none" cx="25.2"  cy="32.4" connectorname="GND" stroke="black" r="1.872" id="connector2pad" stroke-width="0.864"/>
    <circle fill="none" cx="18"  cy="32.4" connectorname="LV" stroke="black" r="1.872" id="connector3pad" stroke-width="0.864"/>
    <circle fill="none" cx="10.8"  cy="32.4" connectorname="RX_LV" stroke="black" r="1.872" id="connector4pad" stroke-width="0.864"/>
    <circle fill="none" cx="3.6"  cy="32.4" connectorname="TX_LV" stroke="black" r="1.872" id="connector5pad" stroke-width="0.864"/>
    <circle fill="none" cx="3.6"  cy="3.6" connectorname="TX_HV" stroke="black" r="1.872" id="connector6pad" stroke-width="0.864"/>
    <circle fill="none" cx="10.8"  cy="3.6" connectorname="RX_HV" stroke="black" r="1.872" id="connector7pad" stroke-width="0.864"/>
    <circle fill="none" cx="18"  cy="3.6" connectorname="HV" stroke="black" r="1.872" id="connector8pad" stroke-width="0.864"/>
    <circle fill="none" cx="25.2"  cy="3.6" connectorname="GND" stroke="black" r="1.872" id="connector9pad" stroke-width="0.864"/>
    <circle fill="none" cx="32.4"  cy="3.6" connectorname="RX2_HV" stroke="black" r="1.872" id="connector10pad" stroke-width="0.864"/>
    <circle fill="none" cx="39.6"  cy="3.6" connectorname="TX2_HV" stroke="black" r="1.872" id="connector11pad" stroke-width="0.864"/>
    <circle fill="none" cx="39.6"  cy="32.4" connectorname="TX2_LV" stroke="black" r="1.872" id="connector0pad" stroke-width="0.864"/>
   </g>
  </g>
  <g transform="translate(133.04,95.1861)">
   <g transform="matrix(0,1,-1,0,0,0)">
    <g  id="copper0" stroke-width="0">
     <circle fill="none" cx="5.04"  cy="5.04" stroke="black" id="connector0pin" r="1.98" stroke-width="1.44"/>
     <circle fill="none" cx="5.04"  cy="12.24" stroke="black" id="connector1pin" r="1.98" stroke-width="1.44"/>
     <circle fill="none" cx="5.04"  cy="19.44" stroke="black" id="connector2pin" r="1.98" stroke-width="1.44"/>
     <circle fill="none" cx="5.04"  cy="26.64" stroke="black" id="connector3pin" r="1.98" stroke-width="1.44"/>
     <circle fill="none" cx="5.04"  cy="33.84" stroke="black" id="connector4pin" r="1.98" stroke-width="1.44"/>
     <circle fill="none" cx="5.04"  cy="41.04" stroke="black" id="connector5pin" r="1.98" stroke-width="1.44"/>
     <circle fill="none" cx="5.04"  cy="48.24" stroke="black" id="connector6pin" r="1.98" stroke-width="1.44"/>
     <circle fill="none" cx="5.04"  cy="55.44" stroke="black" id="connector7pin" r="1.98" stroke-width="1.44"/>
     <circle fill="none" cx="5.04"  cy="62.64" stroke="black" id="connector8pin" r="1.98" stroke-width="1.44"/>
     <circle fill="none" cx="5.04"  cy="69.84" stroke="black" id="connector9pin" r="1.98" stroke-width="1.44"/>
    </g>
   </g>
  </g>
  <g transform="translate(133.04,131.186)">
   <g transform="matrix(0,1,-1,0,0,0)">
    <g  id="copper0" stroke-width="0">
     <circle fill="none" cx="5.04"  cy="5.04" stroke="black" id="connector0pin" r="1.98" stroke-width="1.44"/>
     <circle fill="none" cx="5.04"  cy="12.24" stroke="black" id="connector1pin" r="1.98" stroke-width="1.44"/>
     <circle fill="none" cx="5.04"  cy="19.44" stroke="black" id="connector2pin" r="1.98" stroke-width="1.44"/>
     <circle fill="none" cx="5.04"  cy="26.64" stroke="black" id="connector3pin" r="1.98" stroke-width="1.44"/>
     <circle fill="none" cx="5.04"  cy="33.84" stroke="black" id="connector4pin" r="1.98" stroke-width="1.44"/>
     <circle fill="none" cx="5.04"  cy="41.04" stroke="black" id="connector5pin" r="1.98" stroke-width="1.44"/>
     <circle fill="none" cx="5.04"  cy="48.24" stroke="black" id="connector6pin" r="1.98" stroke-width="1.44"/>
     <circle fill="none" cx="5.04"  cy="55.44" stroke="black" id="connector7pin" r="1.98" stroke-width="1.44"/>
     <circle fill="none" cx="5.04"  cy="62.64" stroke="black" id="connector8pin" r="1.98" stroke-width="1.44"/>
     <circle fill="none" cx="5.04"  cy="69.84" stroke="black" id="connector9pin" r="1.98" stroke-width="1.44"/>
    </g>
   </g>
  </g>
  <g transform="translate(101.36,23.9061)">
   <g transform="matrix(0,-1,1,0,0,0)">
    <g  id="copper0" stroke-width="0">
     <g  id="copper1" stroke-width="0">
      <circle fill="none" cx="2.88"  cy="2.88" stroke="black" id="connector0pin" r="1.8" stroke-width="1.44"/>
      <circle fill="none" cx="10.0933"  cy="2.88" stroke="black" id="connector1pin" r="1.8" stroke-width="1.44"/>
     </g>
    </g>
   </g>
  </g>
  <g transform="translate(74.72,52.7061)">
   <g transform="matrix(0,-1,1,0,0,0)">
    <g  id="copper0" stroke-width="0">
     <g  id="copper1" stroke-width="0">
      <circle fill="none" cx="2.88"  cy="2.88" stroke="black" id="connector0pin" r="1.8" stroke-width="1.44"/>
      <circle fill="none" cx="10.0933"  cy="2.88" stroke="black" id="connector1pin" r="1.8" stroke-width="1.44"/>
     </g>
    </g>
   </g>
  </g>
  <g transform="translate(132.32,118.946)">
   <g  id="copper0" stroke-width="0">
    <g  id="copper1" stroke-width="0">
     <circle fill="none" cx="2.88"  cy="2.88" stroke="black" id="connector0pin" r="1.8" stroke-width="1.44"/>
     <circle fill="none" cx="10.0933"  cy="2.88" stroke="black" id="connector1pin" r="1.8" stroke-width="1.44"/>
    </g>
   </g>
  </g>
  <g transform="translate(26.84,132.986)">
   <g transform="matrix(0,-1,1,0,0,0)">
    <g  id="copper0" stroke-width="0">
     <rect width="3.96" x="1.98" y="5.58" fill="none"  height="3.96" stroke="black" id="rect11" stroke-width="1.44"/>
     <circle fill="none" cx="3.96"  cy="7.56" stroke="black" r="1.98" id="connector0pin" stroke-width="1.44"/>
     <circle fill="none" cx="11.16"  cy="7.56" stroke="black" r="1.98" id="connector1pin" stroke-width="1.44"/>
    </g>
   </g>
  </g>
  <g transform="translate(133.04,66.3861)">
   <g transform="matrix(0,1,-1,0,0,0)">
    <g  id="copper0" stroke-width="0">
     <rect width="3.96" x="3.06" y="3.06" fill="none"  height="3.96" stroke="black" stroke-width="1.44"/>
     <circle fill="none" cx="5.04"  cy="5.04" stroke="black" id="connector0pin" r="1.98" stroke-width="1.44"/>
     <circle fill="none" cx="5.04"  cy="12.24" stroke="black" id="connector1pin" r="1.98" stroke-width="1.44"/>
     <circle fill="none" cx="5.04"  cy="19.44" stroke="black" id="connector2pin" r="1.98" stroke-width="1.44"/>
    </g>
   </g>
  </g>
  <g transform="translate(133.04,80.7861)">
   <g transform="matrix(0,1,-1,0,0,0)">
    <g  id="copper0" stroke-width="0">
     <rect width="3.96" x="3.06" y="3.06" fill="none"  height="3.96" stroke="black" stroke-width="1.44"/>
     <circle fill="none" cx="5.04"  cy="5.04" stroke="black" id="connector0pin" r="1.98" stroke-width="1.44"/>
     <circle fill="none" cx="5.04"  cy="12.24" stroke="black" id="connector1pin" r="1.98" stroke-width="1.44"/>
     <circle fill="none" cx="5.04"  cy="19.44" stroke="black" id="connector2pin" r="1.98" stroke-width="1.44"/>
    </g>
   </g>
  </g>
  <line stroke="black" stroke-linecap="round" y1="49.8261" x1="113.6" y2="54.7861" stroke-width="1.728" x2="113.6"/>
  <line stroke="black" stroke-linecap="round" y1="49.8261" x1="79.48" y2="49.8261" stroke-width="1.728" x2="113.6"/>
  <line stroke="black" stroke-linecap="round" y1="42.592" x1="120.766" y2="42.6119" stroke-width="1.728" x2="79.48"/>
  <line stroke="black" stroke-linecap="round" y1="54.7861" x1="120.795" y2="42.592" stroke-width="1.728" x2="120.766"/>
  <line stroke="black" stroke-linecap="round" y1="21.0261" x1="20" y2="21.0261" stroke-width="1.728" x2="102.36"/>
  <line stroke="black" stroke-linecap="round" y1="150.626" x1="53.84" y2="150.626" stroke-width="1.728" x2="12.8"/>
  <line stroke="black" stroke-linecap="round" y1="150.626" x1="12.8" y2="28.2261" stroke-width="1.728" x2="12.8"/>
  <line stroke="black" stroke-linecap="round" y1="28.2261" x1="12.8" y2="21.0261" stroke-width="1.728" x2="20"/>
  <line stroke="black" stroke-linecap="round" y1="144.664" x1="61.591" y2="150.626" stroke-width="1.728" x2="53.8399"/>
  <line stroke="black" stroke-linecap="round" y1="21.0261" x1="106.4" y2="21.0261" stroke-width="1.728" x2="106.12"/>
  <line stroke="black" stroke-linecap="round" y1="26.6422" x1="112.016" y2="21.0261" stroke-width="1.728" x2="106.4"/>
  <line stroke="black" stroke-linecap="round" y1="49.8261" x1="128" y2="55.4422" stroke-width="1.728" x2="122.384"/>
  <line stroke="black" stroke-linecap="round" y1="49.8261" x1="142.4" y2="49.8261" stroke-width="1.728" x2="128"/>
  <line stroke="black" stroke-linecap="round" y1="119.946" x1="142.413" y2="49.8261" stroke-width="1.728" x2="142.4"/>
  <line stroke="black" stroke-linecap="round" y1="114.626" x1="128" y2="102.286" stroke-width="1.728" x2="128"/>
  <line stroke="black" stroke-linecap="round" y1="120.497" x1="133.871" y2="114.626" stroke-width="1.728" x2="128"/>
  <line stroke="black" stroke-linecap="round" y1="59.2661" x1="128" y2="69.3661" stroke-width="1.728" x2="128"/>
  <line stroke="black" stroke-linecap="round" y1="78.6261" x1="120.8" y2="73.4861" stroke-width="1.728" x2="120.8"/>
  <line stroke="black" stroke-linecap="round" y1="78.6261" x1="102.8" y2="78.6261" stroke-width="1.728" x2="120.8"/>
  <line stroke="black" stroke-linecap="round" y1="89.4261" x1="102.8" y2="78.6261" stroke-width="1.728" x2="102.8"/>
  <line stroke="black" stroke-linecap="round" y1="98.7694" x1="112.143" y2="89.4261" stroke-width="1.728" x2="102.8"/>
  <line stroke="black" stroke-linecap="round" y1="98.1661" x1="120.8" y2="87.8861" stroke-width="1.728" x2="120.8"/>
  <line stroke="black" stroke-linecap="round" y1="78.6261" x1="135.2" y2="84.3694" stroke-width="1.728" x2="129.457"/>
  <line stroke="black" stroke-linecap="round" y1="59.2661" x1="135.2" y2="78.6261" stroke-width="1.728" x2="135.2"/>
  <line stroke="black" stroke-linecap="round" y1="129.026" x1="142.4" y2="129.026" stroke-width="1.728" x2="36.46"/>
  <line stroke="black" stroke-linecap="round" y1="150.626" x1="142.4" y2="129.026" stroke-width="1.728" x2="142.4"/>
  <line stroke="black" stroke-linecap="round" y1="150.626" x1="84.8" y2="150.626" stroke-width="1.728" x2="142.4"/>
  <line stroke="black" stroke-linecap="round" y1="144.862" x1="79.0354" y2="150.626" stroke-width="1.728" x2="84.8"/>
  <line stroke="black" stroke-linecap="round" y1="150.626" x1="84.8" y2="150.626" stroke-width="1.728" x2="142.4"/>
  <line stroke="black" stroke-linecap="round" y1="150.626" x1="142.4" y2="123.706" stroke-width="1.728" x2="142.412"/>
  <line stroke="black" stroke-linecap="round" y1="144.862" x1="79.0354" y2="150.626" stroke-width="1.728" x2="84.8"/>
  <line stroke="black" stroke-linecap="round" y1="121.826" x1="133.32" y2="121.826" stroke-width="1.728" x2="36.46"/>
  <line stroke="black" stroke-linecap="round" y1="136.226" x1="48.8" y2="136.226" stroke-width="1.728" x2="20"/>
  <line stroke="black" stroke-linecap="round" y1="136.226" x1="20" y2="121.826" stroke-width="1.728" x2="20"/>
  <line stroke="black" stroke-linecap="round" y1="121.826" x1="20" y2="121.826" stroke-width="1.728" x2="32.34"/>
  <line stroke="black" stroke-linecap="round" y1="141.991" x1="54.5653" y2="136.226" stroke-width="1.728" x2="48.7998"/>
  <line stroke="black" stroke-linecap="round" y1="49.8261" x1="27.2" y2="49.8261" stroke-width="1.728" x2="75.72"/>
  <line stroke="black" stroke-linecap="round" y1="57.0261" x1="20" y2="49.8261" stroke-width="1.728" x2="27.2"/>
  <line stroke="black" stroke-linecap="round" y1="136.226" x1="20" y2="57.0261" stroke-width="1.728" x2="20"/>
  <line stroke="black" stroke-linecap="round" y1="136.226" x1="48.8" y2="136.226" stroke-width="1.728" x2="20"/>
  <line stroke="black" stroke-linecap="round" y1="141.991" x1="54.5653" y2="136.226" stroke-width="1.728" x2="48.7998"/>
  <line stroke="black" stroke-linecap="round" y1="64.2261" x1="113.6" y2="64.2261" stroke-width="1.728" x2="63.2"/>
  <line stroke="black" stroke-linecap="round" y1="64.2261" x1="63.2" y2="98.1661" stroke-width="1.728" x2="63.2"/>
  <line stroke="black" stroke-linecap="round" y1="58.61" x1="119.216" y2="64.2261" stroke-width="1.728" x2="113.6"/>
  <line stroke="black" stroke-linecap="round" y1="8.06264" x1="122.235" y2="21.0477" stroke-width="1.728" x2="135.2"/>
  <line stroke="black" stroke-linecap="round" y1="21.0477" x1="135.2" y2="25.9861" stroke-width="1.728" x2="135.2"/>
  <line stroke="black" stroke-linecap="round" y1="8.06582" x1="115.031" y2="21.0477" stroke-width="1.728" x2="127.935"/>
  <line stroke="black" stroke-linecap="round" y1="21.0477" x1="127.935" y2="25.9862" stroke-width="1.728" x2="127.98"/>
  <line stroke="black" stroke-linecap="round" y1="13.9594" x1="106.533" y2="26.6422" stroke-width="1.728" x2="119.216"/>
  <line stroke="black" stroke-linecap="round" y1="13.9327" x1="106.116" y2="13.9594" stroke-width="1.728" x2="106.533"/>
  <line stroke="black" stroke-linecap="round" y1="13.8261" x1="34.4" y2="13.8131" stroke-width="1.728" x2="102.36"/>
  <line stroke="black" stroke-linecap="round" y1="8.28913" x1="30.5241" y2="13.8261" stroke-width="1.728" x2="34.4"/>
 </g>
</svg>
