<?xml version='1.0' encoding='UTF-8' standalone='no'?>
<!-- Created with Fritzing (http://www.fritzing.org/) -->
<svg width="0.71076in" x="0in" version="1.2" y="0in" xmlns="http://www.w3.org/2000/svg" height="1.72043in" viewBox="0 0 51.1747 123.871" baseProfile="tiny" xmlns:svg="http://www.w3.org/2000/svg">
 <g  id="silkscreen" stroke-width="0">
  <line  stroke="black" y1="0.288001" x1="0.288" y2="0.288001" stroke-width="0.576" x2="50.5987"/>
  <line  stroke="black" y1="0.288001" x1="50.5987" y2="123.295" stroke-width="0.576" x2="50.5987"/>
  <line  stroke="black" y1="123.295" x1="50.5987" y2="123.295" stroke-width="0.576" x2="0.288"/>
  <line  stroke="black" y1="123.295" x1="0.288" y2="0.288001" stroke-width="0.576" x2="0.288"/>
 </g>
 <g transform="translate(0.34955,0.329697)">
  <g  id="copper1" stroke-width="0">
   <g  id="copper0" stroke-width="0">
    <circle fill="none" cx="43.2"  cy="3.6" connectorname="DTR" stroke="black" r="1.872" id="connector14pad" stroke-width="0.864"/>
    <circle fill="none" cx="36"  cy="3.6" connectorname="TXO" stroke="black" r="1.872" id="connector15pad" stroke-width="0.864"/>
    <circle fill="none" cx="28.8"  cy="3.6" connectorname="RXI" stroke="black" r="1.872" id="connector16pad" stroke-width="0.864"/>
    <circle fill="none" cx="21.6"  cy="3.6" connectorname="VCC" stroke="black" r="1.872" id="connector17pad" stroke-width="0.864"/>
    <circle fill="none" cx="14.4"  cy="3.6" connectorname="GND" stroke="black" r="1.872" id="connector18pad" stroke-width="0.864"/>
    <circle fill="none" cx="7.2"  cy="3.6" connectorname="GND" stroke="black" r="1.872" id="connector19pad" stroke-width="0.864"/>
    <circle fill="none" cx="38.88"  cy="43.2" connectorname="A4" stroke="black" r="1.872" id="connector20pad" stroke-width="0.864"/>
    <circle fill="none" cx="38.88"  cy="36" connectorname="A5" stroke="black" r="1.872" id="connector21pad" stroke-width="0.864"/>
    <circle fill="none" cx="46.8"  cy="10.8" connectorname="RAW" stroke="black" r="1.872" id="connector22pad" stroke-width="0.864"/>
    <circle fill="none" cx="46.8"  cy="18" connectorname="GND" stroke="black" r="1.872" id="connector23pad" stroke-width="0.864"/>
    <circle fill="none" cx="46.8"  cy="25.2" connectorname="RESET" stroke="black" r="1.872" id="connector24pad" stroke-width="0.864"/>
    <circle fill="none" cx="46.8"  cy="32.4" connectorname="VCC" stroke="black" r="1.872" id="connector25pad" stroke-width="0.864"/>
    <circle fill="none" cx="46.8"  cy="39.6" connectorname="A3" stroke="black" r="1.872" id="connector26pad" stroke-width="0.864"/>
    <circle fill="none" cx="46.8"  cy="46.8" connectorname="A2" stroke="black" r="1.872" id="connector27pad" stroke-width="0.864"/>
    <circle fill="none" cx="46.8"  cy="54" connectorname="A1" stroke="black" r="1.872" id="connector28pad" stroke-width="0.864"/>
    <circle fill="none" cx="46.8"  cy="61.2" connectorname="A0" stroke="black" r="1.872" id="connector29pad" stroke-width="0.864"/>
    <circle fill="none" cx="46.8"  cy="68.4" connectorname="SCK" stroke="black" r="1.872" id="connector30pad" stroke-width="0.864"/>
    <circle fill="none" cx="46.8"  cy="75.6" connectorname="MISO" stroke="black" r="1.872" id="connector31pad" stroke-width="0.864"/>
    <circle fill="none" cx="46.8"  cy="82.8" connectorname="MOSI" stroke="black" r="1.872" id="connector32pad" stroke-width="0.864"/>
    <circle fill="none" cx="46.8"  cy="90" connectorname="D10" stroke="black" r="1.872" id="connector33pad" stroke-width="0.864"/>
    <circle fill="none" cx="3.6"  cy="90" connectorname="D9" stroke="black" r="1.872" id="connector34pad" stroke-width="0.864"/>
    <circle fill="none" cx="3.6"  cy="82.8" connectorname="D8" stroke="black" r="1.872" id="connector35pad" stroke-width="0.864"/>
    <circle fill="none" cx="3.6"  cy="75.6" connectorname="D7" stroke="black" r="1.872" id="connector36pad" stroke-width="0.864"/>
    <circle fill="none" cx="3.6"  cy="68.4" connectorname="D6" stroke="black" r="1.872" id="connector37pad" stroke-width="0.864"/>
    <circle fill="none" cx="3.6"  cy="61.2" connectorname="D5" stroke="black" r="1.872" id="connector38pad" stroke-width="0.864"/>
    <circle fill="none" cx="3.6"  cy="54" connectorname="D4" stroke="black" r="1.872" id="connector39pad" stroke-width="0.864"/>
    <circle fill="none" cx="3.6"  cy="46.8" connectorname="D3" stroke="black" r="1.872" id="connector40pad" stroke-width="0.864"/>
    <circle fill="none" cx="3.6"  cy="39.6" connectorname="D2" stroke="black" r="1.872" id="connector41pad" stroke-width="0.864"/>
    <circle fill="none" cx="3.6"  cy="32.4" connectorname="GND" stroke="black" r="1.872" id="connector42pad" stroke-width="0.864"/>
    <circle fill="none" cx="3.6"  cy="25.2" connectorname="RESET" stroke="black" r="1.872" id="connector43pad" stroke-width="0.864"/>
    <circle fill="none" cx="3.6"  cy="18" connectorname="RXI" stroke="black" r="1.872" id="connector44pad" stroke-width="0.864"/>
    <circle fill="none" cx="3.6"  cy="10.8" connectorname="TXO" stroke="black" r="1.872" id="connector45pad" stroke-width="0.864"/>
   </g>
  </g>
 </g>
 <g transform="translate(54.3495,92.4897)">
  <g transform="matrix(0,1,-1,0,0,0)">
   <g  id="copper1" stroke-width="0">
    <g  id="copper0" stroke-width="0">
     <rect width="4.464" x="6.408" y="12.168" fill="none"  height="4.464" stroke="black" stroke-width="1.44"/>
     <circle fill="none" cx="8.64"  cy="14.4" stroke="black" id="connector0pad" r="2.232" stroke-width="1.44"/>
     <circle fill="none" cx="15.84"  cy="14.4" stroke="black" id="connector1pad" r="2.232" stroke-width="1.44"/>
     <circle fill="none" cx="23.04"  cy="14.4" stroke="black" id="connector2pad" r="2.232" stroke-width="1.44"/>
    </g>
   </g>
  </g>
 </g>
 <g transform="translate(-3.25045,124.17)">
  <g transform="matrix(0,-1,1,0,0,0)">
   <g  id="copper1" stroke-width="0">
    <g  id="copper0" stroke-width="0">
     <rect width="4.464" x="6.408" y="12.168" fill="none"  height="4.464" stroke="black" stroke-width="1.44"/>
     <circle fill="none" cx="8.64"  cy="14.4" stroke="black" id="connector0pad" r="2.232" stroke-width="1.44"/>
     <circle fill="none" cx="15.84"  cy="14.4" stroke="black" id="connector1pad" r="2.232" stroke-width="1.44"/>
     <circle fill="none" cx="23.04"  cy="14.4" stroke="black" id="connector2pad" r="2.232" stroke-width="1.44"/>
    </g>
   </g>
  </g>
 </g>
 <g transform="translate(41.3895,-1.1103)">
  <g transform="matrix(0,1,-1,0,0,0)">
   <g  id="copper1" stroke-width="0">
    <g  id="copper0" stroke-width="0">
     <circle fill="none" cx="5.04"  cy="5.04" stroke="black" id="connector0pin" r="1.98" stroke-width="1.44"/>
     <circle fill="none" cx="5.04"  cy="12.24" stroke="black" id="connector1pin" r="1.98" stroke-width="1.44"/>
    </g>
   </g>
  </g>
 </g>
 <g transform="translate(29.1495,35.7537)">
  <g transform="matrix(0,-1,1,0,0,0)">
   <g  id="copper1" stroke-width="0">
    <g  id="copper0" stroke-width="0">
     <rect width="4.464" x="0.72" y="1.368" fill="none"  height="4.464" stroke="black" stroke-width="1.44"/>
     <circle fill="none" cx="3.024"  cy="3.6" stroke="black" id="connector0pin" r="2.232" stroke-width="1.44"/>
     <circle fill="none" cx="24.48"  cy="3.6" stroke="black" id="connector1pin" r="2.232" stroke-width="1.44"/>
    </g>
   </g>
  </g>
 </g>
 <g transform="translate(26.9895,-1.1103)">
  <g transform="matrix(0,1,-1,0,0,0)">
   <g  id="copper1" stroke-width="0">
    <g  id="copper0" stroke-width="0">
     <circle fill="none" cx="5.04"  cy="5.04" stroke="black" id="connector0pin" r="1.98" stroke-width="1.44"/>
     <circle fill="none" cx="5.04"  cy="12.24" stroke="black" id="connector1pin" r="1.98" stroke-width="1.44"/>
    </g>
   </g>
  </g>
 </g>
 <g transform="translate(14.7495,35.7537)">
  <g transform="matrix(0,-1,1,0,0,0)">
   <g  id="copper1" stroke-width="0">
    <g  id="copper0" stroke-width="0">
     <rect width="4.464" x="0.72" y="1.368" fill="none"  height="4.464" stroke="black" stroke-width="1.44"/>
     <circle fill="none" cx="3.024"  cy="3.6" stroke="black" id="connector0pin" r="2.232" stroke-width="1.44"/>
     <circle fill="none" cx="24.48"  cy="3.6" stroke="black" id="connector1pin" r="2.232" stroke-width="1.44"/>
    </g>
   </g>
  </g>
 </g>
 <g transform="translate(7.18955,46.7697)">
  <g  id="copper1" stroke-width="0">
   <g  id="copper0" stroke-width="0">
    <rect width="3.96" x="1.98" y="5.58" fill="none"  height="3.96" stroke="black" id="rect11" stroke-width="1.44"/>
    <circle fill="none" cx="3.96"  cy="7.56" stroke="black" r="1.98" id="connector0pin" stroke-width="1.44"/>
    <circle fill="none" cx="11.16"  cy="7.56" stroke="black" r="1.98" id="connector1pin" stroke-width="1.44"/>
   </g>
  </g>
 </g>
 <g transform="translate(43.9095,61.8897)">
  <g transform="matrix(-1,0,0,-1,0,0)">
   <g  id="copper1" stroke-width="0">
    <g  id="copper0" stroke-width="0">
     <rect width="3.96" x="1.98" y="5.58" fill="none"  height="3.96" stroke="black" id="rect11" stroke-width="1.44"/>
     <circle fill="none" cx="3.96"  cy="7.56" stroke="black" r="1.98" id="connector0pin" stroke-width="1.44"/>
     <circle fill="none" cx="11.16"  cy="7.56" stroke="black" r="1.98" id="connector1pin" stroke-width="1.44"/>
    </g>
   </g>
  </g>
 </g>
 <g transform="translate(21.5895,87.0897)">
  <g transform="matrix(0,-1,1,0,0,0)">
   <g  id="copper1" stroke-width="0">
    <g  id="copper0" stroke-width="0">
     <rect width="3.96" x="1.98" y="5.58" fill="none"  height="3.96" stroke="black" id="rect11" stroke-width="1.44"/>
     <circle fill="none" cx="3.96"  cy="7.56" stroke="black" r="1.98" id="connector0pin" stroke-width="1.44"/>
     <circle fill="none" cx="11.16"  cy="7.56" stroke="black" r="1.98" id="connector1pin" stroke-width="1.44"/>
    </g>
   </g>
  </g>
 </g>
 <g transform="translate(25.9095,61.1697)">
  <g transform="matrix(0,1,-1,0,0,0)">
   <g  id="copper1" stroke-width="0">
    <g  id="copper0" stroke-width="0">
     <rect width="3.96" x="1.98" y="5.58" fill="none"  height="3.96" stroke="black" id="rect11" stroke-width="1.44"/>
     <circle fill="none" cx="3.96"  cy="7.56" stroke="black" r="1.98" id="connector0pin" stroke-width="1.44"/>
     <circle fill="none" cx="11.16"  cy="7.56" stroke="black" r="1.98" id="connector1pin" stroke-width="1.44"/>
    </g>
   </g>
  </g>
 </g>
 <g transform="translate(34.1895,85.2897)">
  <g transform="matrix(0,1,-1,0,0,0)">
   <g  id="copper1" stroke-width="0">
    <g  id="copper0" stroke-width="0">
     <circle fill="none" cx="5.04"  cy="5.04" stroke="black" id="connector0pin" r="1.98" stroke-width="1.44"/>
     <circle fill="none" cx="5.04"  cy="12.24" stroke="black" id="connector1pin" r="1.98" stroke-width="1.44"/>
    </g>
   </g>
  </g>
 </g>
 <line stroke="black" stroke-linecap="round" y1="9.1977" x1="33.7672" y2="5.77941" stroke-width="1.152" x2="35.4428"/>
 <line stroke="black" stroke-linecap="round" y1="9.1977" x1="17.3319" y2="5.77941" stroke-width="1.152" x2="15.6563"/>
 <line stroke="black" stroke-linecap="round" y1="3.9297" x1="24.0095" y2="3.9297" stroke-width="1.728" x2="27.0895"/>
 <line stroke="black" stroke-linecap="round" y1="18.398" x1="22.0178" y2="5.41864" stroke-width="1.152" x2="28.4156"/>
 <line stroke="black" stroke-linecap="round" y1="31.5862" x1="5.39112" y2="18.398" stroke-width="1.152" x2="22.0178"/>
 <line stroke="black" stroke-linecap="round" y1="36.3492" x1="11.091" y2="33.5615" stroke-width="1.152" x2="5.59079"/>
 <line stroke="black" stroke-linecap="round" y1="52.6697" x1="11.1441" y2="36.3492" stroke-width="1.152" x2="11.091"/>
 <line stroke="black" stroke-linecap="round" y1="52.6697" x1="18.3495" y2="34.6417" stroke-width="1.152" x2="18.3495"/>
 <line stroke="black" stroke-linecap="round" y1="52.2697" x1="32.7495" y2="35.0417" stroke-width="1.152" x2="32.7495"/>
 <line stroke="black" stroke-linecap="round" y1="43.5297" x1="43.5593" y2="52.7553" stroke-width="1.152" x2="40.4758"/>
 <line stroke="black" stroke-linecap="round" y1="21.9882" x1="43.5593" y2="43.5297" stroke-width="1.152" x2="43.5593"/>
 <line stroke="black" stroke-linecap="round" y1="19.643" x1="45.8608" y2="21.9882" stroke-width="1.152" x2="43.5593"/>
 <line stroke="black" stroke-linecap="round" y1="65.0949" x1="43.5322" y2="55.9048" stroke-width="1.152" x2="40.4737"/>
 <line stroke="black" stroke-linecap="round" y1="97.5395" x1="47.1495" y2="93.8949" stroke-width="1.152" x2="43.5322"/>
 <line stroke="black" stroke-linecap="round" y1="93.8949" x1="43.5322" y2="65.0949" stroke-width="1.152" x2="43.5322"/>
 <line stroke="black" stroke-linecap="round" y1="104.72" x1="47.1495" y2="97.5395" stroke-width="1.152" x2="47.1495"/>
 <line stroke="black" stroke-linecap="round" y1="107.473" x1="41.6588" y2="104.72" stroke-width="1.152" x2="47.1495"/>
 <line stroke="black" stroke-linecap="round" y1="55.7116" x1="33.6693" y2="65.0949" stroke-width="1.152" x2="39.9148"/>
 <line stroke="black" stroke-linecap="round" y1="93.9492" x1="39.9691" y2="99.2177" stroke-width="1.152" x2="39.9547"/>
 <line stroke="black" stroke-linecap="round" y1="65.0949" x1="39.9148" y2="93.9492" stroke-width="1.152" x2="39.9691"/>
 <line stroke="black" stroke-linecap="round" y1="21.9882" x1="36.3788" y2="21.9882" stroke-width="1.152" x2="25.6081"/>
 <line stroke="black" stroke-linecap="round" y1="90.359" x1="36.3788" y2="97.5395" stroke-width="1.152" x2="32.7886"/>
 <line stroke="black" stroke-linecap="round" y1="75.9297" x1="36.3788" y2="90.359" stroke-width="1.152" x2="36.3788"/>
 <line stroke="black" stroke-linecap="round" y1="54.3004" x1="25.6081" y2="68.7123" stroke-width="1.152" x2="36.2974"/>
 <line stroke="black" stroke-linecap="round" y1="97.5395" x1="32.7886" y2="108.808" stroke-width="1.152" x2="33.2276"/>
 <line stroke="black" stroke-linecap="round" y1="12.436" x1="45.8538" y2="21.9882" stroke-width="1.152" x2="36.3788"/>
 <line stroke="black" stroke-linecap="round" y1="21.9882" x1="25.6081" y2="54.3004" stroke-width="1.152" x2="25.6081"/>
 <line stroke="black" stroke-linecap="round" y1="68.7123" x1="36.2974" y2="75.9297" stroke-width="1.152" x2="36.3788"/>
 <line stroke="black" stroke-linecap="round" y1="108.808" x1="33.2276" y2="114.178" stroke-width="1.152" x2="38.5976"/>
 <line stroke="black" stroke-linecap="round" y1="115.491" x1="29.1983" y2="115.526" stroke-width="1.152" x2="13.0615"/>
 <line stroke="black" stroke-linecap="round" y1="91.9897" x1="29.1528" y2="115.491" stroke-width="1.152" x2="29.1983"/>
 <line stroke="black" stroke-linecap="round" y1="108.31" x1="22.0178" y2="108.326" stroke-width="1.152" x2="13.0615"/>
 <line stroke="black" stroke-linecap="round" y1="91.9897" x1="21.9559" y2="108.31" stroke-width="1.152" x2="22.0178"/>
 <line stroke="black" stroke-linecap="round" y1="61.4809" x1="11.091" y2="93.9492" stroke-width="1.152" x2="11.1495"/>
 <line stroke="black" stroke-linecap="round" y1="93.9492" x1="11.1495" y2="99.2177" stroke-width="1.152" x2="11.1495"/>
 <line stroke="black" stroke-linecap="round" y1="55.4947" x1="17.167" y2="61.4809" stroke-width="1.152" x2="11.091"/>
 <line stroke="black" stroke-linecap="round" y1="86.7687" x1="7.50077" y2="93.9492" stroke-width="1.152" x2="7.50077"/>
 <line stroke="black" stroke-linecap="round" y1="93.9492" x1="7.50077" y2="97.5395" stroke-width="1.152" x2="3.91053"/>
 <line stroke="black" stroke-linecap="round" y1="97.5395" x1="3.91053" y2="108.31" stroke-width="1.152" x2="3.91053"/>
 <line stroke="black" stroke-linecap="round" y1="108.31" x1="3.91053" y2="114.18" stroke-width="1.152" x2="9.79574"/>
 <line stroke="black" stroke-linecap="round" y1="55.4891" x1="9.96155" y2="57.8907" stroke-width="1.152" x2="7.50077"/>
 <line stroke="black" stroke-linecap="round" y1="57.8907" x1="7.50077" y2="86.7687" stroke-width="1.152" x2="7.50077"/>
 <line stroke="black" stroke-linecap="round" y1="88.6697" x1="29.1495" y2="84.7897" stroke-width="1.152" x2="29.1495"/>
 <line stroke="black" stroke-linecap="round" y1="75.9297" x1="36.3788" y2="75.9297" stroke-width="1.152" x2="30.8095"/>
 <line stroke="black" stroke-linecap="round" y1="68.7532" x1="25.5966" y2="65.8721" stroke-width="1.152" x2="19.8343"/>
 <line stroke="black" stroke-linecap="round" y1="79.4826" x1="21.926" y2="68.7532" stroke-width="1.152" x2="25.5966"/>
 <line stroke="black" stroke-linecap="round" y1="82.3815" x1="27.6677" y2="79.4826" stroke-width="1.152" x2="21.926"/>
 <line stroke="black" stroke-linecap="round" y1="79.5882" x1="14.6813" y2="90.359" stroke-width="1.152" x2="14.6813"/>
 <line stroke="black" stroke-linecap="round" y1="90.359" x1="14.6813" y2="90.338" stroke-width="1.152" x2="19.8896"/>
 <line stroke="black" stroke-linecap="round" y1="74.1682" x1="17.4204" y2="79.5882" stroke-width="1.152" x2="14.6813"/>
</svg>
