<?xml version='1.0' encoding='UTF-8' standalone='no'?>
<!-- Created with Fritzing (http://www.fritzing.org/) -->
<svg width="0.71076in" x="0in" version="1.2" y="0in" xmlns="http://www.w3.org/2000/svg" height="1.72043in" viewBox="0 0 51.1747 123.871" baseProfile="tiny" xmlns:svg="http://www.w3.org/2000/svg">
 <g  id="silkscreen" stroke-width="0">
  <line  stroke="black" y1="0.288001" x1="0.288" y2="0.288001" stroke-width="0.576" x2="50.5987"/>
  <line  stroke="black" y1="0.288001" x1="50.5987" y2="123.295" stroke-width="0.576" x2="50.5987"/>
  <line  stroke="black" y1="123.295" x1="50.5987" y2="123.295" stroke-width="0.576" x2="0.288"/>
  <line  stroke="black" y1="123.295" x1="0.288" y2="0.288001" stroke-width="0.576" x2="0.288"/>
 </g>
 <g transform="translate(0.34955,0.329697)">
  <g id="silkscreen" stroke-width="0">
   <path fill="none" stroke="black" stroke-width="0.576" d="M0.288,0.288L0.288,93.312L50.112,93.312L50.112,0.288L0.288,0.288"/>
   <g stroke-width="0">
    <title>element:JP1</title>
    <g stroke-width="0">
     <title>package:1X06</title>
    </g>
   </g>
   <g stroke-width="0">
    <title>element:JP6</title>
    <g stroke-width="0">
     <title>package:1X12</title>
    </g>
   </g>
   <g stroke-width="0">
    <title>element:JP7</title>
    <g stroke-width="0">
     <title>package:1X12</title>
    </g>
   </g>
   <g stroke-width="0">
    <title>element:S2</title>
    <g stroke-width="0">
     <title>package:TACTILE_SWITCH_SMD</title>
     <line stroke="black" stroke-linecap="round" y1="79.285" x1="32.4" y2="86.4" stroke-width="0.576" x2="32.4"/>
     <line stroke="black" stroke-linecap="round" y1="90" x1="29.5654" y2="90" stroke-width="0.576" x2="20.8346"/>
     <line stroke="black" stroke-linecap="round" y1="86.315" x1="18" y2="79.285" stroke-width="0.576" x2="18"/>
     <line stroke="black" stroke-linecap="round" y1="75.6" x1="20.8346" y2="75.6" stroke-width="0.576" x2="29.5654"/>
     <circle fill="none" cx="25.2" cy="82.8" stroke="black" r="3.6" stroke-width="0.576"/>
    </g>
   </g>
   <g stroke-width="0">
    <title>element:U$11</title>
    <g stroke-width="0">
     <title>package:SFE-NEW-WEBLOGO</title>
    </g>
   </g>
   <g stroke-width="0">
    <title>element:U1</title>
    <g stroke-width="0">
     <title>package:TQFP32-08</title>
     <line stroke="black" stroke-linecap="round" y1="54" x1="39.2508" y2="68.0511" stroke-width="0.432" x2="25.1997"/>
     <line stroke="black" stroke-linecap="round" y1="68.0511" x1="25.1997" y2="54" stroke-width="0.432" x2="11.1489"/>
     <line stroke="black" stroke-linecap="round" y1="54" x1="11.1489" y2="40.661" stroke-width="0.432" x2="24.4882"/>
     <line stroke="black" stroke-linecap="round" y1="40.661" x1="25.9115" y2="54" stroke-width="0.432" x2="39.2508"/>
     <line stroke="black" stroke-linecap="round" y1="40.661" x1="25.9115" y2="40.661" stroke-width="0.432" x2="24.4882"/>
     <circle fill="none" cx="25.2" cy="43.0033" stroke="black" r="1.0182" stroke-width="0.432"/>
    </g>
   </g>
  </g>
 </g>
 <g transform="translate(54.3495,92.4897)">
  <g transform="matrix(0,1,-1,0,0,0)">
   <g id="silkscreen" stroke-width="0">
    <line stroke="black" y1="5.76" stroke-width="0.72" x1="1.44" y2="5.76" x2="30.24"/>
    <line stroke="black" y1="5.76" stroke-width="0.72" x1="30.24" y2="18.72" x2="30.24"/>
    <line stroke="black" y1="18.72" stroke-width="0.72" x1="30.24" y2="18.72" x2="1.44"/>
    <line stroke="black" y1="18.72" stroke-width="0.72" x1="1.44" y2="5.76" x2="1.44"/>
    <line stroke="black" y1="5.76" stroke-width="0.72" x1="1.44" y2="5.76" x2="30.24"/>
    <line stroke="black" y1="5.76" stroke-width="0.72" x1="30.24" y2="10.08" x2="30.24"/>
    <line stroke="black" y1="10.08" stroke-width="0.72" x1="30.24" y2="10.08" x2="1.44"/>
    <line stroke="black" y1="10.08" stroke-width="0.72" x1="1.44" y2="5.76" x2="1.44"/>
    <line stroke="black" y1="5.76" stroke-width="0.36" x1="10.8" y2="10.08" x2="10.8"/>
    <line stroke="black" y1="5.76" stroke-width="0.36" x1="20.88" y2="10.08" x2="20.88"/>
   </g>
  </g>
 </g>
 <g transform="translate(-3.25045,124.17)">
  <g transform="matrix(0,-1,1,0,0,0)">
   <g id="silkscreen" stroke-width="0">
    <line stroke="black" y1="5.76" stroke-width="0.72" x1="1.44" y2="5.76" x2="30.24"/>
    <line stroke="black" y1="5.76" stroke-width="0.72" x1="30.24" y2="18.72" x2="30.24"/>
    <line stroke="black" y1="18.72" stroke-width="0.72" x1="30.24" y2="18.72" x2="1.44"/>
    <line stroke="black" y1="18.72" stroke-width="0.72" x1="1.44" y2="5.76" x2="1.44"/>
    <line stroke="black" y1="5.76" stroke-width="0.72" x1="1.44" y2="5.76" x2="30.24"/>
    <line stroke="black" y1="5.76" stroke-width="0.72" x1="30.24" y2="10.08" x2="30.24"/>
    <line stroke="black" y1="10.08" stroke-width="0.72" x1="30.24" y2="10.08" x2="1.44"/>
    <line stroke="black" y1="10.08" stroke-width="0.72" x1="1.44" y2="5.76" x2="1.44"/>
    <line stroke="black" y1="5.76" stroke-width="0.36" x1="10.8" y2="10.08" x2="10.8"/>
    <line stroke="black" y1="5.76" stroke-width="0.36" x1="20.88" y2="10.08" x2="20.88"/>
   </g>
  </g>
 </g>
 <g transform="translate(41.3895,-1.1103)">
  <g transform="matrix(0,1,-1,0,0,0)">
   <g id="silkscreen" stroke-width="0">
    <line stroke="black" y1="1.44" stroke-width="0.72" x1="1.44" y2="15.84" x2="1.44"/>
    <line stroke="black" y1="15.84" stroke-width="0.72" x1="1.44" y2="15.84" x2="8.64"/>
    <line stroke="black" y1="15.84" stroke-width="0.72" x1="8.64" y2="1.44" x2="8.64"/>
    <line stroke="black" y1="1.44" stroke-width="0.72" x1="8.64" y2="1.44" x2="1.44"/>
    <line stroke="black" y1="8.64" stroke-width="0.36" x1="1.44" y2="8.64" x2="8.64"/>
   </g>
  </g>
 </g>
 <g transform="translate(29.1495,35.7537)">
  <g transform="matrix(0,-1,1,0,0,0)">
   <g id="silkscreen" stroke-width="0">
    <line stroke="black" stroke-linecap="flat" y1="3.6" stroke-width="0.72" x1="5.976" y2="3.6" x2="6.912"/>
    <line stroke="black" stroke-linecap="flat" y1="3.6" stroke-width="0.72" x1="20.952" y2="3.6" x2="21.456"/>
    <line stroke="black" stroke-linecap="flat" y1="0.36" stroke-width="0.72" x1="6.912" y2="0.36" x2="20.952"/>
    <line stroke="black" stroke-linecap="flat" y1="0.36" stroke-width="0.72" x1="20.952" y2="6.84" x2="20.952"/>
    <line stroke="black" stroke-linecap="flat" y1="6.84" stroke-width="0.72" x1="20.952" y2="6.84" x2="6.912"/>
    <line stroke="black" stroke-linecap="flat" y1="6.84" stroke-width="0.72" x1="6.912" y2="0.36" x2="6.912"/>
    <line stroke="black" stroke-linecap="flat" y1="6.84" stroke-width="1.44" x1="8.352" y2="0.36" x2="8.352"/>
   </g>
  </g>
 </g>
 <g transform="translate(26.9895,-1.1103)">
  <g transform="matrix(0,1,-1,0,0,0)">
   <g id="silkscreen" stroke-width="0">
    <line stroke="black" y1="1.44" stroke-width="0.72" x1="1.44" y2="15.84" x2="1.44"/>
    <line stroke="black" y1="15.84" stroke-width="0.72" x1="1.44" y2="15.84" x2="8.64"/>
    <line stroke="black" y1="15.84" stroke-width="0.72" x1="8.64" y2="1.44" x2="8.64"/>
    <line stroke="black" y1="1.44" stroke-width="0.72" x1="8.64" y2="1.44" x2="1.44"/>
    <line stroke="black" y1="8.64" stroke-width="0.36" x1="1.44" y2="8.64" x2="8.64"/>
   </g>
  </g>
 </g>
 <g id="silkscreen" stroke-width="0">
  <line stroke="black" y1="0.288001" x1="0.288" y2="0.288001" stroke-width="0.576" x2="50.5987"/>
  <line stroke="black" y1="0.288001" x1="50.5987" y2="123.295" stroke-width="0.576" x2="50.5987"/>
  <line stroke="black" y1="123.295" x1="50.5987" y2="123.295" stroke-width="0.576" x2="0.288"/>
  <line stroke="black" y1="123.295" x1="0.288" y2="0.288001" stroke-width="0.576" x2="0.288"/>
 </g>
 <g transform="translate(14.7495,35.7537)">
  <g transform="matrix(0,-1,1,0,0,0)">
   <g id="silkscreen" stroke-width="0">
    <line stroke="black" stroke-linecap="flat" y1="3.6" stroke-width="0.72" x1="5.976" y2="3.6" x2="6.912"/>
    <line stroke="black" stroke-linecap="flat" y1="3.6" stroke-width="0.72" x1="20.952" y2="3.6" x2="21.456"/>
    <line stroke="black" stroke-linecap="flat" y1="0.36" stroke-width="0.72" x1="6.912" y2="0.36" x2="20.952"/>
    <line stroke="black" stroke-linecap="flat" y1="0.36" stroke-width="0.72" x1="20.952" y2="6.84" x2="20.952"/>
    <line stroke="black" stroke-linecap="flat" y1="6.84" stroke-width="0.72" x1="20.952" y2="6.84" x2="6.912"/>
    <line stroke="black" stroke-linecap="flat" y1="6.84" stroke-width="0.72" x1="6.912" y2="0.36" x2="6.912"/>
    <line stroke="black" stroke-linecap="flat" y1="6.84" stroke-width="1.44" x1="8.352" y2="0.36" x2="8.352"/>
   </g>
  </g>
 </g>
 <g transform="translate(7.18955,46.7697)">
  <g id="silkscreen" stroke-width="0">
   <circle fill="none" cx="7.56" cy="7.56" stroke="black" r="7.2" id="circle7" stroke-width="0.72"/>
   <path fill="none" stroke="black" stroke-linecap="round" stroke-width="0.792" d="m2.88,3.6,2.16,0"/>
   <path fill="none" stroke="black" stroke-linecap="round" stroke-width="0.792" d="m2.88,11.52,2.16,0"/>
  </g>
 </g>
 <g transform="translate(43.9095,61.8897)">
  <g transform="matrix(-1,0,0,-1,0,0)">
   <g id="silkscreen" stroke-width="0">
    <circle fill="none" cx="7.56" cy="7.56" stroke="black" r="7.2" id="circle7" stroke-width="0.72"/>
    <path fill="none" stroke="black" stroke-linecap="round" stroke-width="0.792" d="m2.88,3.6,2.16,0"/>
    <path fill="none" stroke="black" stroke-linecap="round" stroke-width="0.792" d="m2.88,11.52,2.16,0"/>
   </g>
  </g>
 </g>
 <g transform="translate(21.5895,87.0897)">
  <g transform="matrix(0,-1,1,0,0,0)">
   <g id="silkscreen" stroke-width="0">
    <circle fill="none" cx="7.56" cy="7.56" stroke="black" r="7.2" id="circle7" stroke-width="0.72"/>
    <path fill="none" stroke="black" stroke-linecap="round" stroke-width="0.792" d="m2.88,3.6,2.16,0"/>
    <path fill="none" stroke="black" stroke-linecap="round" stroke-width="0.792" d="m2.88,11.52,2.16,0"/>
   </g>
  </g>
 </g>
 <g transform="translate(25.9095,61.1697)">
  <g transform="matrix(0,1,-1,0,0,0)">
   <g id="silkscreen" stroke-width="0">
    <circle fill="none" cx="7.56" cy="7.56" stroke="black" r="7.2" id="circle7" stroke-width="0.72"/>
    <path fill="none" stroke="black" stroke-linecap="round" stroke-width="0.792" d="m2.88,3.6,2.16,0"/>
    <path fill="none" stroke="black" stroke-linecap="round" stroke-width="0.792" d="m2.88,11.52,2.16,0"/>
   </g>
  </g>
 </g>
 <g transform="translate(34.1895,85.2897)">
  <g transform="matrix(0,1,-1,0,0,0)">
   <g id="silkscreen" stroke-width="0">
    <line stroke="black" y1="1.44" stroke-width="0.72" x1="1.44" y2="15.84" x2="1.44"/>
    <line stroke="black" y1="15.84" stroke-width="0.72" x1="1.44" y2="15.84" x2="8.64"/>
    <line stroke="black" y1="15.84" stroke-width="0.72" x1="8.64" y2="1.44" x2="8.64"/>
    <line stroke="black" y1="1.44" stroke-width="0.72" x1="8.64" y2="1.44" x2="1.44"/>
    <line stroke="black" y1="8.64" stroke-width="0.36" x1="1.44" y2="8.64" x2="8.64"/>
   </g>
  </g>
 </g>
 <g transform="translate(27.3291,117.469)">
  <g fill="#000000" font-family="'OCRA'" stroke="none" font-style="normal" fill-opacity="1" font-weight="normal" id="silkscreenLabel" font-size="5">
   <text x="0" y="3.75">U1</text>
  </g>
 </g>
 <g transform="translate(16.4256,117.001)">
  <g fill="#000000" font-family="'OCRA'" stroke="none" font-style="normal" fill-opacity="1" font-weight="normal" id="silkscreenLabel" font-size="5">
   <text x="0" y="3.75">U2</text>
  </g>
 </g>
 <g transform="translate(8.41875,16.428)">
  <g fill="#000000" font-family="'OCRA'" stroke="none" font-style="normal" fill-opacity="1" font-weight="normal" id="silkscreenLabel" font-size="5">
   <text x="0" y="3.75">D3</text>
  </g>
 </g>
 <g transform="translate(36.2286,8.8897)">
  <g fill="#000000" font-family="'OCRA'" stroke="none" font-style="normal" fill-opacity="1" font-weight="normal" id="silkscreenLabel" font-size="5">
   <text x="0" y="3.75">J1</text>
  </g>
 </g>
 <g transform="translate(36.5113,26.5383)">
  <g fill="#000000" font-family="'OCRA'" stroke="none" font-style="normal" fill-opacity="1" font-weight="normal" id="silkscreenLabel" font-size="5">
   <text x="0" y="3.75">D1</text>
  </g>
 </g>
 <g transform="translate(7.3115,9.51409)">
  <g fill="#000000" font-family="'OCRA'" stroke="none" font-style="normal" fill-opacity="1" font-weight="normal" id="silkscreenLabel" font-size="5">
   <text x="0" y="3.75">J3</text>
  </g>
 </g>
 <g transform="translate(25.3339,37.5795)">
  <g fill="#000000" font-family="'OCRA'" stroke="none" font-style="normal" fill-opacity="1" font-weight="normal" id="silkscreenLabel" font-size="5">
   <text x="0" y="3.75">C2</text>
  </g>
 </g>
 <g transform="translate(11.3827,41.7941)">
  <g fill="#000000" font-family="'OCRA'" stroke="none" font-style="normal" fill-opacity="1" font-weight="normal" id="silkscreenLabel" font-size="5">
   <text x="0" y="3.75">C1</text>
  </g>
 </g>
 <g transform="translate(28.9047,67.3063)">
  <g fill="#000000" font-family="'OCRA'" stroke="none" font-style="normal" fill-opacity="1" font-weight="normal" id="silkscreenLabel" font-size="5">
   <text x="0" y="3.75">C3</text>
  </g>
 </g>
 <g transform="translate(21.8784,100.623)">
  <g fill="#000000" font-family="'OCRA'" stroke="none" font-style="normal" fill-opacity="1" font-weight="normal" id="silkscreenLabel" font-size="5">
   <text x="0" y="3.75">J2</text>
  </g>
 </g>
 <g transform="translate(23.2559,59.316)">
  <g fill="#000000" font-family="'OCRA'" stroke="none" font-style="normal" fill-opacity="1" font-weight="normal" id="silkscreenLabel" font-size="5">
   <text x="0" y="3.75">C4</text>
  </g>
 </g>
 <g transform="translate(0.34955,0.329697)">
  <g id="copper1" stroke-width="0">
   <g id="copper0" stroke-width="0">
    <circle fill="white" cx="43.2" cy="3.6" connectorname="DTR" stroke="white" r="1.872" id="connector14pad" stroke-width="1.296"/>
    <circle fill="white" cx="36" cy="3.6" connectorname="TXO" stroke="white" r="1.872" id="connector15pad" stroke-width="1.296"/>
    <circle fill="white" cx="28.8" cy="3.6" connectorname="RXI" stroke="white" r="1.872" id="connector16pad" stroke-width="1.296"/>
    <circle fill="white" cx="21.6" cy="3.6" connectorname="VCC" stroke="white" r="1.872" id="connector17pad" stroke-width="1.296"/>
    <circle fill="white" cx="14.4" cy="3.6" connectorname="GND" stroke="white" r="1.872" id="connector18pad" stroke-width="1.296"/>
    <circle fill="white" cx="7.2" cy="3.6" connectorname="GND" stroke="white" r="1.872" id="connector19pad" stroke-width="1.296"/>
    <circle fill="white" cx="38.88" cy="43.2" connectorname="A4" stroke="white" r="1.872" id="connector20pad" stroke-width="1.296"/>
    <circle fill="white" cx="38.88" cy="36" connectorname="A5" stroke="white" r="1.872" id="connector21pad" stroke-width="1.296"/>
    <circle fill="white" cx="46.8" cy="10.8" connectorname="RAW" stroke="white" r="1.872" id="connector22pad" stroke-width="1.296"/>
    <circle fill="white" cx="46.8" cy="18" connectorname="GND" stroke="white" r="1.872" id="connector23pad" stroke-width="1.296"/>
    <circle fill="white" cx="46.8" cy="25.2" connectorname="RESET" stroke="white" r="1.872" id="connector24pad" stroke-width="1.296"/>
    <circle fill="white" cx="46.8" cy="32.4" connectorname="VCC" stroke="white" r="1.872" id="connector25pad" stroke-width="1.296"/>
    <circle fill="white" cx="46.8" cy="39.6" connectorname="A3" stroke="white" r="1.872" id="connector26pad" stroke-width="1.296"/>
    <circle fill="white" cx="46.8" cy="46.8" connectorname="A2" stroke="white" r="1.872" id="connector27pad" stroke-width="1.296"/>
    <circle fill="white" cx="46.8" cy="54" connectorname="A1" stroke="white" r="1.872" id="connector28pad" stroke-width="1.296"/>
    <circle fill="white" cx="46.8" cy="61.2" connectorname="A0" stroke="white" r="1.872" id="connector29pad" stroke-width="1.296"/>
    <circle fill="white" cx="46.8" cy="68.4" connectorname="SCK" stroke="white" r="1.872" id="connector30pad" stroke-width="1.296"/>
    <circle fill="white" cx="46.8" cy="75.6" connectorname="MISO" stroke="white" r="1.872" id="connector31pad" stroke-width="1.296"/>
    <circle fill="white" cx="46.8" cy="82.8" connectorname="MOSI" stroke="white" r="1.872" id="connector32pad" stroke-width="1.296"/>
    <circle fill="white" cx="46.8" cy="90" connectorname="D10" stroke="white" r="1.872" id="connector33pad" stroke-width="1.296"/>
    <circle fill="white" cx="3.6" cy="90" connectorname="D9" stroke="white" r="1.872" id="connector34pad" stroke-width="1.296"/>
    <circle fill="white" cx="3.6" cy="82.8" connectorname="D8" stroke="white" r="1.872" id="connector35pad" stroke-width="1.296"/>
    <circle fill="white" cx="3.6" cy="75.6" connectorname="D7" stroke="white" r="1.872" id="connector36pad" stroke-width="1.296"/>
    <circle fill="white" cx="3.6" cy="68.4" connectorname="D6" stroke="white" r="1.872" id="connector37pad" stroke-width="1.296"/>
    <circle fill="white" cx="3.6" cy="61.2" connectorname="D5" stroke="white" r="1.872" id="connector38pad" stroke-width="1.296"/>
    <circle fill="white" cx="3.6" cy="54" connectorname="D4" stroke="white" r="1.872" id="connector39pad" stroke-width="1.296"/>
    <circle fill="white" cx="3.6" cy="46.8" connectorname="D3" stroke="white" r="1.872" id="connector40pad" stroke-width="1.296"/>
    <circle fill="white" cx="3.6" cy="39.6" connectorname="D2" stroke="white" r="1.872" id="connector41pad" stroke-width="1.296"/>
    <circle fill="white" cx="3.6" cy="32.4" connectorname="GND" stroke="white" r="1.872" id="connector42pad" stroke-width="1.296"/>
    <circle fill="white" cx="3.6" cy="25.2" connectorname="RESET" stroke="white" r="1.872" id="connector43pad" stroke-width="1.296"/>
    <circle fill="white" cx="3.6" cy="18" connectorname="RXI" stroke="white" r="1.872" id="connector44pad" stroke-width="1.296"/>
    <circle fill="white" cx="3.6" cy="10.8" connectorname="TXO" stroke="white" r="1.872" id="connector45pad" stroke-width="1.296"/>
   </g>
  </g>
 </g>
 <g transform="translate(54.3495,92.4897)">
  <g transform="matrix(0,1,-1,0,0,0)">
   <g id="copper1" stroke-width="0">
    <g id="copper0" stroke-width="0">
     <rect width="4.464" x="6.408" y="12.168" fill="white" height="4.464" stroke="white" stroke-width="1.872"/>
     <circle fill="white" cx="8.64" cy="14.4" stroke="white" id="connector0pad" r="2.232" stroke-width="1.872"/>
     <circle fill="white" cx="15.84" cy="14.4" stroke="white" id="connector1pad" r="2.232" stroke-width="1.872"/>
     <circle fill="white" cx="23.04" cy="14.4" stroke="white" id="connector2pad" r="2.232" stroke-width="1.872"/>
    </g>
   </g>
  </g>
 </g>
 <g transform="translate(-3.25045,124.17)">
  <g transform="matrix(0,-1,1,0,0,0)">
   <g id="copper1" stroke-width="0">
    <g id="copper0" stroke-width="0">
     <rect width="4.464" x="6.408" y="12.168" fill="white" height="4.464" stroke="white" stroke-width="1.872"/>
     <circle fill="white" cx="8.64" cy="14.4" stroke="white" id="connector0pad" r="2.232" stroke-width="1.872"/>
     <circle fill="white" cx="15.84" cy="14.4" stroke="white" id="connector1pad" r="2.232" stroke-width="1.872"/>
     <circle fill="white" cx="23.04" cy="14.4" stroke="white" id="connector2pad" r="2.232" stroke-width="1.872"/>
    </g>
   </g>
  </g>
 </g>
 <g transform="translate(41.3895,-1.1103)">
  <g transform="matrix(0,1,-1,0,0,0)">
   <g id="copper1" stroke-width="0">
    <g id="copper0" stroke-width="0">
     <circle fill="white" cx="5.04" cy="5.04" stroke="white" id="connector0pin" r="1.98" stroke-width="1.872"/>
     <circle fill="white" cx="5.04" cy="12.24" stroke="white" id="connector1pin" r="1.98" stroke-width="1.872"/>
    </g>
   </g>
  </g>
 </g>
 <g transform="translate(29.1495,35.7537)">
  <g transform="matrix(0,-1,1,0,0,0)">
   <g id="copper1" stroke-width="0">
    <g id="copper0" stroke-width="0">
     <rect width="4.464" x="0.72" y="1.368" fill="white" height="4.464" stroke="white" stroke-width="1.872"/>
     <circle fill="white" cx="3.024" cy="3.6" stroke="white" id="connector0pin" r="2.232" stroke-width="1.872"/>
     <circle fill="white" cx="24.48" cy="3.6" stroke="white" id="connector1pin" r="2.232" stroke-width="1.872"/>
    </g>
   </g>
  </g>
 </g>
 <g transform="translate(26.9895,-1.1103)">
  <g transform="matrix(0,1,-1,0,0,0)">
   <g id="copper1" stroke-width="0">
    <g id="copper0" stroke-width="0">
     <circle fill="white" cx="5.04" cy="5.04" stroke="white" id="connector0pin" r="1.98" stroke-width="1.872"/>
     <circle fill="white" cx="5.04" cy="12.24" stroke="white" id="connector1pin" r="1.98" stroke-width="1.872"/>
    </g>
   </g>
  </g>
 </g>
 <g transform="translate(14.7495,35.7537)">
  <g transform="matrix(0,-1,1,0,0,0)">
   <g id="copper1" stroke-width="0">
    <g id="copper0" stroke-width="0">
     <rect width="4.464" x="0.72" y="1.368" fill="white" height="4.464" stroke="white" stroke-width="1.872"/>
     <circle fill="white" cx="3.024" cy="3.6" stroke="white" id="connector0pin" r="2.232" stroke-width="1.872"/>
     <circle fill="white" cx="24.48" cy="3.6" stroke="white" id="connector1pin" r="2.232" stroke-width="1.872"/>
    </g>
   </g>
  </g>
 </g>
 <g transform="translate(7.18955,46.7697)">
  <g id="copper1" stroke-width="0">
   <g id="copper0" stroke-width="0">
    <rect width="3.96" x="1.98" y="5.58" fill="white" height="3.96" stroke="white" id="rect11" stroke-width="1.872"/>
    <circle fill="white" cx="3.96" cy="7.56" stroke="white" r="1.98" id="connector0pin" stroke-width="1.872"/>
    <circle fill="white" cx="11.16" cy="7.56" stroke="white" r="1.98" id="connector1pin" stroke-width="1.872"/>
   </g>
  </g>
 </g>
 <g transform="translate(43.9095,61.8897)">
  <g transform="matrix(-1,0,0,-1,0,0)">
   <g id="copper1" stroke-width="0">
    <g id="copper0" stroke-width="0">
     <rect width="3.96" x="1.98" y="5.58" fill="white" height="3.96" stroke="white" id="rect11" stroke-width="1.872"/>
     <circle fill="white" cx="3.96" cy="7.56" stroke="white" r="1.98" id="connector0pin" stroke-width="1.872"/>
     <circle fill="white" cx="11.16" cy="7.56" stroke="white" r="1.98" id="connector1pin" stroke-width="1.872"/>
    </g>
   </g>
  </g>
 </g>
 <g transform="translate(21.5895,87.0897)">
  <g transform="matrix(0,-1,1,0,0,0)">
   <g id="copper1" stroke-width="0">
    <g id="copper0" stroke-width="0">
     <rect width="3.96" x="1.98" y="5.58" fill="white" height="3.96" stroke="white" id="rect11" stroke-width="1.872"/>
     <circle fill="white" cx="3.96" cy="7.56" stroke="white" r="1.98" id="connector0pin" stroke-width="1.872"/>
     <circle fill="white" cx="11.16" cy="7.56" stroke="white" r="1.98" id="connector1pin" stroke-width="1.872"/>
    </g>
   </g>
  </g>
 </g>
 <g transform="translate(25.9095,61.1697)">
  <g transform="matrix(0,1,-1,0,0,0)">
   <g id="copper1" stroke-width="0">
    <g id="copper0" stroke-width="0">
     <rect width="3.96" x="1.98" y="5.58" fill="white" height="3.96" stroke="white" id="rect11" stroke-width="1.872"/>
     <circle fill="white" cx="3.96" cy="7.56" stroke="white" r="1.98" id="connector0pin" stroke-width="1.872"/>
     <circle fill="white" cx="11.16" cy="7.56" stroke="white" r="1.98" id="connector1pin" stroke-width="1.872"/>
    </g>
   </g>
  </g>
 </g>
 <g transform="translate(34.1895,85.2897)">
  <g transform="matrix(0,1,-1,0,0,0)">
   <g id="copper1" stroke-width="0">
    <g id="copper0" stroke-width="0">
     <circle fill="white" cx="5.04" cy="5.04" stroke="white" id="connector0pin" r="1.98" stroke-width="1.872"/>
     <circle fill="white" cx="5.04" cy="12.24" stroke="white" id="connector1pin" r="1.98" stroke-width="1.872"/>
    </g>
   </g>
  </g>
 </g>
</svg>
